HIERARCHY
ROOT Hips
{
	OFFSET 0.000000 0.000000 0.000000 
	CHANNELS 6 Xposition Yposition Zposition Zrotation Yrotation Xrotation
	JOINT LeftUpLeg
	{
		OFFSET 1.363060 -1.794630 0.839290 
		CHANNELS 3 Zrotation Yrotation Xrotation
		JOINT LeftLeg
		{
			OFFSET 2.448110 -6.726130 0.000000 
			CHANNELS 3 Zrotation Yrotation Xrotation
			JOINT LeftFoot
			{
				OFFSET 2.562200 -7.039590 0.000000 
				CHANNELS 3 Zrotation Yrotation Xrotation
				JOINT LeftToeBase
				{
					OFFSET 0.157640 -0.433110 2.322550 
					CHANNELS 3 Zrotation Yrotation Xrotation
					End Site
					{
						OFFSET 0.000000 0.000000 0.000000 
					}
				}
			}
		}
	}
	JOINT RightUpLeg
	{
		OFFSET -1.305520 -1.794630 0.839290 
		CHANNELS 3 Zrotation Yrotation Xrotation
		JOINT RightLeg
		{
			OFFSET -2.542530 -6.985550 0.000000 
			CHANNELS 3 Zrotation Yrotation Xrotation
			JOINT RightFoot
			{
				OFFSET -2.568260 -7.056230 0.000000 
				CHANNELS 3 Zrotation Yrotation Xrotation
				JOINT RightToeBase
				{
					OFFSET -0.164730 -0.452590 2.363150 
					CHANNELS 3 Zrotation Yrotation Xrotation
					End Site
					{
						OFFSET 0.000000 0.000000 0.000000 
					}
				}
			}
		}
	}
	JOINT Spine
	{
		OFFSET 0.028270 2.035590 -0.193380 
		CHANNELS 3 Zrotation Yrotation Xrotation
		JOINT Spine1
		{
			OFFSET 0.056720 2.048850 -0.042750 
			CHANNELS 3 Zrotation Yrotation Xrotation
			JOINT Neck1
			{
				OFFSET -0.054170 1.746240 0.172020 
				CHANNELS 3 Zrotation Yrotation Xrotation
				JOINT Head
				{
					OFFSET 0.104070 1.761360 -0.123970 
					CHANNELS 3 Zrotation Yrotation Xrotation
					End Site
					{
						OFFSET 0.000000 0.000000 0.000000 
					}
				}
			}
			JOINT LeftArm
			{
				OFFSET 3.362410 1.200890 -0.311210 
				CHANNELS 3 Zrotation Yrotation Xrotation
				JOINT LeftForeArm
				{
					OFFSET 4.983000 -0.000000 -0.000000 
					CHANNELS 3 Zrotation Yrotation Xrotation
					JOINT LeftHand
					{
						OFFSET 3.483560 -0.000000 -0.000000 
						CHANNELS 3 Zrotation Yrotation Xrotation
						JOINT LeftHandIndex1
						{
							OFFSET 0.715260 -0.000000 -0.000000 
							CHANNELS 3 Zrotation Yrotation Xrotation
							End Site
							{
								OFFSET 0.000000 0.000000 0.000000 
							}
						}
					}
				}
			}
			JOINT RightArm
			{
				OFFSET -3.136600 1.374050 -0.404650 
				CHANNELS 3 Zrotation Yrotation Xrotation
				JOINT RightForeArm
				{
					OFFSET -5.241900 -0.000000 -0.000000 
					CHANNELS 3 Zrotation Yrotation Xrotation
					JOINT RightHand
					{
						OFFSET -3.444170 -0.000000 -0.000000 
						CHANNELS 3 Zrotation Yrotation Xrotation
						JOINT RightHandIndex1
						{
							OFFSET -0.622530 -0.000000 -0.000000 
							CHANNELS 3 Zrotation Yrotation Xrotation
							End Site
							{
								OFFSET 0.000000 0.000000 0.000000 
							}
						}
					}
				}
			}
		}
	}
}
MOTION
Frames: 14
Frame Time: 0.041667
-1.631957 19.286056 86.650203 -134.743442 -70.926423 18.760504 41.022709 -56.348796 127.636256 -67.466337 88.655986 108.443563 22.568993 -87.564013 -43.229446 4.143900 -12.349500 -36.979800 166.395830 77.116017 -156.858620 -155.296618 -59.889975 43.855111 107.718396 -77.602315 -43.593088 -0.419400 -4.156600 11.517600 -137.420135 0.530372 -31.786016 97.763684 -56.252206 -38.445733 46.901737 85.326419 -75.973785 8.857900 -6.665700 9.070000 89.510267 -25.041455 125.879873 123.883798 -64.978471 143.259476 -126.648201 -31.299093 -88.359702 -7.125000 0.000000 0.000000 175.233911 36.877809 -101.733022 -81.107372 77.569756 161.549296 -170.246084 -86.111909 156.614091 7.125000 0.000000 0.000000 
-1.898928 19.366082 86.627523 42.168806 -89.017664 -14.789797 -41.669862 -36.370489 -13.403952 -13.254947 75.954492 155.612958 -111.303196 -28.096909 -53.060245 3.898800 -12.024500 -35.818700 98.390939 -52.354787 -159.922450 -78.939195 -33.495131 154.416987 -106.101824 65.461877 110.570739 -0.467700 -4.386600 12.166800 -0.925498 27.818171 2.230224 -19.432775 57.117222 -1.531687 146.600062 24.506531 -156.126518 8.859700 -6.623600 9.015400 -86.421036 -3.631358 143.871489 -114.537078 -59.525379 85.443277 -105.052992 -48.771109 -69.294115 -7.125000 0.000000 0.000000 -5.482485 -43.333355 98.256626 -66.094817 10.380910 110.343600 33.608923 -75.199150 -33.022643 7.125000 0.000000 0.000000 
-2.167195 19.443193 86.600632 -156.674234 76.742296 -92.050225 -60.954150 -67.297263 -101.701050 31.226644 -51.185467 105.691578 -32.938010 13.824861 26.913126 3.650700 -11.680400 -34.610700 22.797710 27.242573 39.119369 24.161112 51.692230 68.177728 -161.668249 78.990876 158.433837 -0.512300 -4.588000 12.737000 -110.353251 27.890178 -38.589736 -168.872287 16.331229 -80.520743 146.254502 -4.257288 -123.220901 8.868800 -6.571600 8.967400 102.724530 -8.138593 -127.903413 87.639887 -34.246310 129.789111 -60.613036 36.604954 -128.355647 -7.125000 0.000000 0.000000 62.597283 -38.595308 -44.809409 -48.508971 5.719200 16.104326 122.997049 -88.987830 153.343323 7.125000 0.000000 0.000000 
-2.436434 19.519008 86.569528 -101.135838 53.598893 20.123343 84.766855 -58.244082 106.399852 -37.974113 -54.999664 -148.782528 137.439077 -86.432403 6.703641 3.400400 -11.316600 -33.355200 -110.041864 6.237319 90.628730 -84.744773 -30.826500 127.854767 -161.002330 70.950259 -85.075104 -0.552500 -4.761700 13.230200 -168.773680 60.727651 -133.289752 113.432961 -45.691570 108.531053 111.471896 81.856727 103.102693 8.880500 -6.513100 8.923700 32.260971 -69.019289 63.434562 -108.852205 -1.651694 -64.362086 -152.615653 -26.932607 -87.414547 -7.125000 0.000000 0.000000 -123.086415 -19.715842 90.197906 65.818877 60.258023 23.887970 38.597239 -17.195974 48.087655 7.125000 0.000000 0.000000 
-2.706644 19.595470 86.536481 154.559429 15.642809 -45.603231 61.136444 26.839348 -146.906159 -179.720915 -86.122549 -84.222077 -68.606885 52.977878 101.262671 3.148900 -10.932200 -32.051600 -48.451381 -13.268338 -16.277402 -8.232435 -60.474035 135.364940 -81.200315 84.383366 26.847074 -0.588000 -4.909600 13.651100 80.609636 -30.794987 147.105648 -46.279949 16.203269 -46.013847 -74.984784 -14.847658 66.138502 8.889000 -6.452400 8.880700 78.803438 -46.279732 -115.321730 34.445405 -10.319393 -44.869999 -83.201083 -24.635605 -72.414675 -7.125000 0.000000 0.000000 18.736378 5.429738 148.937616 33.361530 -51.714180 16.587508 -41.265414 -34.843396 -2.397185 7.125000 0.000000 0.000000 
-2.977179 19.675173 86.503434 177.232212 -72.432970 -81.892687 22.245329 -56.776198 131.354627 101.303512 40.381803 -28.166910 162.260604 22.306657 -171.417083 2.897200 -10.526700 -30.699700 -42.280936 -44.381033 -101.248720 -103.012976 -36.487439 -74.466179 132.580964 10.528859 -119.545407 -0.618600 -5.033600 14.004300 70.434726 -76.563688 -79.097018 -119.036708 -63.461417 -148.468406 16.191907 -89.288456 -160.361650 8.889500 -6.393000 8.834400 -34.058731 -69.990939 44.857889 -106.763664 7.492087 -2.719487 -127.561694 21.774838 -94.835051 -7.125000 0.000000 0.000000 115.511333 69.642885 -40.126668 -81.208463 -45.295389 -161.448875 -37.831383 -50.488080 -11.067239 7.125000 0.000000 0.000000 
-3.247066 19.760059 86.472654 -116.776996 52.398543 -25.023158 -33.148592 40.383397 -58.706846 163.597441 -1.163583 -43.105333 19.944046 -78.692103 69.404673 2.646500 -10.099600 -29.299700 -128.960612 59.315234 81.988577 11.445620 30.411703 158.695246 133.281285 -18.213043 115.775858 -0.644400 -5.135300 14.295000 -113.208382 -25.643955 -22.064172 149.510406 -2.840925 38.863142 -76.895416 -70.382329 -0.965351 8.880100 -6.337300 8.782100 -178.932000 -75.522444 -153.425354 -6.539993 -82.023934 -30.412901 -64.527272 -52.195089 -33.111915 -7.125000 0.000000 0.000000 -171.769375 -30.559882 70.382835 -56.499638 -79.606105 -151.058119 -72.524027 8.327979 33.272987 7.125000 0.000000 0.000000 
-3.516629 19.852073 86.447059 31.465041 -88.326346 -35.976142 -47.562832 2.548732 64.512721 126.755093 74.713642 32.564842 12.139234 -30.961020 -82.161365 2.398600 -9.651200 -27.854300 -60.469835 84.222351 98.414599 -14.769784 -25.866960 14.857985 -31.480114 -48.736829 -17.175620 -0.665500 -5.217000 14.528600 167.903348 -37.154307 74.769675 -43.567344 19.075011 58.287952 -6.850015 -7.481888 1.194760 8.861800 -6.285900 8.723600 178.623379 80.871591 -124.576270 -106.950126 62.451982 160.853717 -133.108471 -16.078422 -103.777282 -7.125000 0.000000 0.000000 145.935686 88.604093 -79.448641 39.106355 27.825904 175.893932 -18.257974 -72.453783 -25.242218 7.125000 0.000000 0.000000 
-3.785220 19.952187 86.427943 -61.093877 52.202994 90.896559 84.571451 -88.187436 -159.677550 7.999902 79.225683 104.688569 -51.835159 48.821083 111.321487 2.155100 -9.181900 -26.366000 -156.524222 38.335234 -133.211637 103.688211 -57.224158 -24.763214 64.932373 6.888388 -95.050798 -0.682000 -5.280000 14.709000 101.374089 28.063393 155.019024 12.702779 42.650671 -105.466328 -91.062075 76.962717 23.941933 8.838000 -6.238100 8.660100 75.516773 3.768299 103.828070 73.604829 -41.361367 148.131895 -100.499409 29.846402 -107.588203 -7.125000 0.000000 0.000000 -93.951769 -36.545084 88.813787 17.849075 43.937971 -6.458643 0.955687 -87.072466 -72.980871 7.125000 0.000000 0.000000 
-4.052839 20.061373 86.418223 -45.811397 -79.235132 -57.641598 98.600728 -63.244367 -96.885335 -153.114628 35.570044 6.456402 -149.084109 -68.385909 -158.950505 1.917900 -8.693000 -24.839700 112.399465 85.765790 -47.167318 -105.453201 23.157168 -160.228142 -126.045264 7.599453 3.564717 -0.694100 -5.325700 14.840000 69.536938 10.793260 157.787609 -19.196402 30.683669 122.752068 90.820585 -68.195917 115.789850 8.812300 -6.192300 8.594000 83.132470 -72.502003 -41.122624 -41.697856 81.313626 -82.858329 107.421199 50.790312 157.558114 -7.125000 0.000000 0.000000 76.878057 51.417382 -145.471552 -141.585106 -27.224817 -51.615559 22.932423 10.206787 -28.855640 7.125000 0.000000 0.000000 
-4.319162 20.179631 86.418547 108.605945 20.938084 78.088974 139.385272 14.338847 104.795447 -62.449509 -87.401838 -41.615093 8.464551 9.950348 22.353773 1.689200 -8.186200 -23.281100 -42.402127 70.329862 42.315887 -5.742920 18.225226 -174.900062 151.569286 71.771730 -151.763185 -0.701700 -5.354500 14.922400 -154.843424 82.206318 9.674801 -18.114788 7.319525 160.151933 175.957566 -74.493755 -46.864747 8.788300 -6.147100 8.527800 43.601964 55.087397 -140.371332 -77.691158 83.996932 -38.252962 148.437075 -82.377254 -177.787167 -7.125000 0.000000 0.000000 63.610451 -82.647424 7.392688 100.805664 -64.537702 -51.026121 50.419553 -0.922920 -19.556569 7.125000 0.000000 0.000000 
-4.584189 20.306313 86.429563 168.562617 12.914202 104.911727 -6.420187 -6.629797 -152.285805 140.368915 23.033125 -32.007688 -11.505884 83.300938 -11.053872 1.470700 -7.663600 -21.696900 74.213306 -77.529791 143.585633 -19.682692 -56.184564 -62.713347 -48.975859 20.809082 87.257693 -0.704700 -5.365500 14.954100 -40.148549 -14.477546 163.261167 56.900718 -62.907722 150.576939 -172.335739 -73.610325 164.901158 8.767900 -6.101400 8.463800 -122.049385 70.538881 -53.251869 145.279651 -54.111650 -24.371794 -70.599881 35.840949 -101.483920 -7.125000 0.000000 0.000000 168.883768 1.924063 -47.190139 110.019702 -51.570160 128.591648 30.636162 1.827795 -12.709128 7.125000 0.000000 0.000000 
-4.847920 20.439150 86.449975 -52.673921 -23.240671 -47.054333 176.080950 -67.316071 -9.763749 147.463701 21.197984 3.546080 -25.676090 58.944203 106.987925 1.264300 -7.127400 -20.093500 0.428429 71.487852 39.130852 -34.973404 10.458400 -91.928491 -109.427064 58.010384 104.026664 -0.702700 -5.358100 14.932800 -81.940121 58.102504 168.860056 143.641676 -25.482142 28.632325 29.222140 -58.914651 76.993191 8.751500 -6.054700 8.403300 -143.222350 52.870965 -119.578827 40.510140 55.168800 -32.965479 -15.574152 -21.460518 -49.148954 -7.125000 0.000000 0.000000 -170.883650 -71.269097 142.787632 67.995874 35.592363 -82.073097 104.975643 8.924842 -55.234132 7.125000 0.000000 0.000000 
-5.110678 20.575551 86.476542 105.224707 30.573631 162.329542 -21.362887 8.822360 42.569747 -93.101655 34.122826 -20.498508 -80.823657 -60.214150 -3.762393 1.071600 -6.580400 -18.478200 123.531866 -10.214624 23.911393 -102.616772 34.024721 177.097276 -107.309567 -3.403746 76.689777 -0.696000 -5.333000 14.860700 105.288019 33.542008 -117.832383 -100.830924 11.684292 -7.198314 -11.735652 59.298449 -27.551143 8.737900 -6.006600 8.347500 -17.990491 -30.854201 -67.992343 -167.434402 -88.248472 156.270099 -20.112987 -6.203267 -56.583737 -7.125000 0.000000 0.000000 156.923323 39.198656 28.951587 28.481117 -29.700019 -62.870853 78.236296 -23.269563 -61.101768 7.125000 0.000000 0.000000 
